<svg width="25" height="25" viewBox="0 0 25 25" fill="none" xmlns="http://www.w3.org/2000/svg">
<path d="M24.0636 12.5562C24.0636 11.6856 23.9855 10.8485 23.8404 10.0449H12.2773V14.794H18.8848C18.6002 16.3287 17.7352 17.629 16.4349 18.4995V21.58H20.4027C22.7242 19.4427 24.0636 16.2952 24.0636 12.5562Z" fill="#4285F4"/>
<path d="M12.2801 24.554C15.595 24.554 18.3741 23.4546 20.4054 21.5796L16.4376 18.4991C15.3382 19.2357 13.9319 19.671 12.2801 19.671C9.08238 19.671 6.37579 17.5113 5.41034 14.6094H1.30859V17.7903C3.32877 21.8028 7.48075 24.554 12.2801 24.554Z" fill="#34A853"/>
<path d="M5.40761 14.61C5.16207 13.8734 5.02255 13.0865 5.02255 12.2773C5.02255 11.4681 5.16207 10.6813 5.40761 9.94462V6.76367H1.30586C0.446449 8.47453 -0.000757429 10.3627 9.62975e-07 12.2773C9.62975e-07 14.2584 0.474353 16.1335 1.30586 17.791L5.40761 14.61Z" fill="#FBBC05"/>
<path d="M12.2801 4.88303C14.0826 4.88303 15.701 5.50248 16.9734 6.71906L20.4947 3.19769C18.3685 1.21657 15.5894 0 12.2801 0C7.48075 0 3.32877 2.75124 1.30859 6.7637L5.41034 9.94465C6.37579 7.04273 9.08238 4.88303 12.2801 4.88303Z" fill="#EA4335"/>
</svg>
