<svg width="596" height="636" viewBox="0 0 596 636" fill="none" xmlns="http://www.w3.org/2000/svg">
<path d="M591.939 336.037H587.885C574.788 336.661 561.877 338.221 549.279 340.656C427.66 364.248 330.927 470.289 306.479 605.664H294.441C269.369 467.043 168.52 359.317 42.5977 339.22C28.6895 336.973 14.4695 335.85 0 335.85C14.4695 335.85 28.6895 334.726 42.5977 332.479C161.098 313.568 257.207 217.076 289.078 90.3141C296.25 61.9158 300.179 31.9572 300.429 1C300.616 31.8948 304.545 61.8534 311.655 90.3141C342.652 214.018 434.958 309.012 549.279 331.231C561.877 333.665 574.788 335.226 587.885 335.85C589.132 335.85 590.442 335.85 591.939 336.037Z" stroke="#FF7300" stroke-width="59" stroke-miterlimit="10"/>
</svg>
