<svg width="18" height="18" viewBox="0 0 18 18" fill="none" xmlns="http://www.w3.org/2000/svg">
<path d="M12.7499 1.49987C13.7436 1.50283 14.6958 1.8989 15.3984 2.60157C16.1011 3.30424 16.4972 4.25641 16.5001 5.25013V12.7499C16.4972 13.7436 16.1011 14.6958 15.3984 15.3984C14.6958 16.1011 13.7436 16.4972 12.7499 16.5001H5.25013C4.25641 16.4972 3.30424 16.1011 2.60157 15.3984C1.8989 14.6958 1.50283 13.7436 1.49987 12.7499V5.25013C1.50283 4.25641 1.8989 3.30424 2.60157 2.60157C3.30424 1.8989 4.25641 1.50283 5.25013 1.49987H12.7499ZM12.7499 0H5.25013C2.3625 0 0 2.3625 0 5.25013V12.7499C0 15.6375 2.3625 18 5.25013 18H12.7499C15.6375 18 18 15.6375 18 12.7499V5.25013C18 2.3625 15.6375 0 12.7499 0Z" fill="#7E7E7E"/>
<path d="M13.798 4.98647C13.5747 4.98647 13.3565 4.9175 13.1708 4.78828C12.9852 4.65906 12.8405 4.4754 12.755 4.26052C12.6696 4.04564 12.6472 3.80919 12.6908 3.58107C12.7343 3.35296 12.8419 3.14342 12.9998 2.97896C13.1576 2.81449 13.3588 2.70249 13.5778 2.65712C13.7968 2.61174 14.0238 2.63503 14.2301 2.72404C14.4363 2.81304 14.6127 2.96377 14.7367 3.15716C14.8608 3.35055 14.927 3.57791 14.927 3.81049C14.9273 3.96502 14.8983 4.11809 14.8417 4.26091C14.7851 4.40374 14.7019 4.53351 14.597 4.64277C14.4921 4.75204 14.3675 4.83865 14.2304 4.89763C14.0933 4.95661 13.9464 4.9868 13.798 4.98647ZM8.90612 5.77017C9.50156 5.77017 10.0836 5.9541 10.5787 6.29869C11.0738 6.64329 11.4597 7.13307 11.6876 7.70612C11.9154 8.27916 11.9751 8.90971 11.8589 9.51805C11.7427 10.1264 11.456 10.6852 11.0349 11.1238C10.6139 11.5624 10.0775 11.861 9.49346 11.982C8.90946 12.1031 8.30412 12.0409 7.754 11.8036C7.20388 11.5662 6.73369 11.1643 6.40287 10.6485C6.07206 10.1328 5.89549 9.52649 5.89549 8.90624C5.89635 8.07477 6.21381 7.27762 6.77823 6.68968C7.34264 6.10175 8.10791 5.77106 8.90612 5.77017ZM8.90612 4.20235C8.01299 4.20235 7.13992 4.47822 6.39731 4.99509C5.6547 5.51196 5.07591 6.24661 4.73412 7.10614C4.39234 7.96566 4.30291 8.91146 4.47715 9.82392C4.65139 10.7364 5.08147 11.5745 5.71301 12.2324C6.34455 12.8902 7.14917 13.3382 8.02514 13.5197C8.90111 13.7012 9.80907 13.6081 10.6342 13.2521C11.4594 12.896 12.1646 12.2931 12.6608 11.5196C13.157 10.746 13.4219 9.83658 13.4219 8.90624C13.4219 7.65869 12.9461 6.46223 12.0992 5.58008C11.2524 4.69793 10.1038 4.20235 8.90612 4.20235Z" fill="#7E7E7E"/>
</svg>
