<svg width="22" height="23" viewBox="0 0 22 23" fill="none" xmlns="http://www.w3.org/2000/svg">
<path d="M20.3757 17.1718C19.6123 16.4026 17.7632 15.2801 16.866 14.8277C15.6977 14.2393 15.6016 14.1912 14.6833 14.8734C14.0708 15.3287 13.6636 15.7354 12.9467 15.5825C12.2299 15.4296 10.6721 14.5676 9.30817 13.2081C7.94419 11.8485 7.03215 10.2457 6.87878 9.5313C6.72541 8.81691 7.13889 8.41453 7.58986 7.80061C8.22545 6.93526 8.17737 6.79104 7.63409 5.62282C7.21052 4.7142 6.05521 2.88255 5.28307 2.12297C4.45709 1.30714 4.45709 1.45136 3.92487 1.67251C3.49157 1.8548 3.07588 2.07639 2.68301 2.3345C1.91376 2.84553 1.48683 3.27003 1.18826 3.90799C0.889696 4.54594 0.755558 6.04155 2.29742 8.84239C3.83929 11.6432 4.92104 13.0754 7.16004 15.308C9.39904 17.5406 11.1207 18.741 13.6376 20.1525C16.7511 21.8962 17.9454 21.5563 18.5853 21.2582C19.2252 20.9601 19.6517 20.5371 20.1637 19.7679C20.4225 19.3757 20.6446 18.9605 20.8272 18.5276C21.0488 17.9973 21.1931 17.9973 20.3757 17.1718Z" stroke="#7E7E7E" stroke-width="1.5" stroke-miterlimit="10"/>
</svg>
