<svg width="43" height="46" viewBox="0 0 43 46" fill="none" xmlns="http://www.w3.org/2000/svg">
<path d="M0.999999 24.8258H1.28764C2.21694 24.8701 3.13297 24.9811 4.02687 25.1542C12.6561 26.832 19.5197 34.3729 21.2543 44H22.1084C23.8874 34.1421 31.043 26.4813 39.9776 25.0521C40.9644 24.8923 41.9733 24.8124 43 24.8124C41.9733 24.8124 40.9644 24.7326 39.9776 24.5728C31.5696 23.2279 24.7503 16.366 22.489 7.35147C21.9801 5.33196 21.7013 3.20149 21.6836 1C21.6703 3.19705 21.3915 5.32752 20.8871 7.35147C18.6877 16.1485 12.1383 22.9039 4.02687 24.484C3.13297 24.6571 2.21694 24.7681 1.28764 24.8124C1.19914 24.8124 1.1062 24.8124 0.999999 24.8258Z" stroke="#7E7E7E" stroke-width="4" stroke-miterlimit="10"/>
</svg>
