<svg width="18" height="19" viewBox="0 0 18 19" fill="none" xmlns="http://www.w3.org/2000/svg">
<path fill-rule="evenodd" clip-rule="evenodd" d="M15.3775 3.11566C14.5454 2.28319 13.5569 1.62352 12.4689 1.17462C11.3808 0.72572 10.2148 0.496462 9.03775 0.500041C4.09821 0.500041 0.0771427 4.50101 0.0751338 9.41966C0.0729486 10.9859 0.485796 12.5247 1.27165 13.8795L0 18.5L4.75111 17.2597C6.06624 17.9721 7.53842 18.345 9.03414 18.3445H9.03775C13.9769 18.3445 17.9976 14.3431 18 9.42489C18.003 8.2519 17.7727 7.09003 17.3224 6.00688C16.8722 4.92373 16.2111 3.94093 15.3775 3.11566ZM9.03775 16.839H9.03454C7.70117 16.8394 6.39204 16.4826 5.2433 15.8056L4.97129 15.6449L2.15196 16.381L2.9045 13.6452L2.72732 13.364C1.98176 12.1836 1.58675 10.8158 1.58826 9.41966C1.58826 5.33231 4.93151 2.00673 9.04057 2.00673C11.0117 2.00321 12.9036 2.78279 14.3 4.17401C15.6964 5.56522 16.483 7.45414 16.4868 9.42529C16.4852 13.513 13.1436 16.839 9.03775 16.839ZM13.1235 11.2868C12.8997 11.1751 11.7976 10.6359 11.5935 10.5615C11.3894 10.4872 11.2387 10.4498 11.0897 10.6732C10.9406 10.8966 10.5111 11.3964 10.3805 11.5471C10.2499 11.6978 10.1194 11.7143 9.89557 11.6026C9.67177 11.4909 8.94976 11.2558 8.09436 10.4964C7.4286 9.90542 6.97941 9.17578 6.84883 8.95279C6.71825 8.7298 6.83477 8.60886 6.94686 8.49797C7.04771 8.39792 7.17066 8.23761 7.28276 8.10743C7.39485 7.97726 7.43222 7.88404 7.50655 7.73538C7.58088 7.58672 7.54392 7.45654 7.48807 7.34525C7.43222 7.23395 6.98423 6.13668 6.7978 5.6903C6.61579 5.25557 6.43137 5.31463 6.29396 5.3078C6.16338 5.30137 6.01271 5.29976 5.86446 5.29976C5.75112 5.30271 5.6396 5.329 5.53687 5.37697C5.43415 5.42495 5.34242 5.49359 5.2674 5.5786C5.06209 5.80199 4.48352 6.34199 4.48352 7.43806C4.48352 8.53413 5.28709 9.59484 5.39798 9.7435C5.50888 9.89216 6.977 12.1434 9.22338 13.1089C9.64051 13.2875 10.0667 13.4441 10.5003 13.5781C11.0366 13.7477 11.5248 13.724 11.9105 13.6665C12.3408 13.6026 13.2364 13.1273 13.4224 12.6066C13.6085 12.0859 13.6089 11.6399 13.553 11.5471C13.4972 11.4543 13.3477 11.3981 13.1235 11.2868Z" fill="#7E7E7E"/>
</svg>
