<svg width="22" height="17" viewBox="0 0 22 17" fill="none" xmlns="http://www.w3.org/2000/svg">
<path d="M21.8586 3.75362C21.8586 1.76149 20.4362 0.158928 18.6786 0.158928C16.2978 0.0442695 13.8697 0 11.3884 0H10.6149C8.13957 0 5.70723 0.0442696 3.32646 0.159371C1.57312 0.159371 0.150671 1.77079 0.150671 3.76292C0.0432355 5.33847 -0.00231712 6.91447 0.000261329 8.49047C-0.00403609 10.0665 0.044668 11.6439 0.146374 13.2229C0.146374 15.215 1.56882 16.8309 3.32216 16.8309C5.82326 16.9504 8.38882 17.0035 10.9974 16.9991C13.6102 17.0079 16.1686 16.9519 18.6725 16.8309C20.4302 16.8309 21.8526 15.215 21.8526 13.2229C21.9558 11.6425 22.003 10.0665 21.9987 8.48604C22.0085 6.91005 21.9618 5.33257 21.8586 3.75362ZM8.89592 12.8333V4.13434L15.1272 8.48162L8.89592 12.8333Z" fill="#7E7E7E"/>
</svg>
